<svg width="24" height="24" viewBox="0 0 32 32" fill="none"
    xmlns="http://www.w3.org/2000/svg">
    <g clip-path="url(#a)">
        <path d="M16.358 4.95h.002l.227.043v.223c0 3.848.468 6.128 1.803 7.997l-5.177 5.176c-1.87-1.336-4.149-1.803-7.997-1.803h-.223l-.043-.227v-.001C4.111 12.168 1.57 4.555.59 1.687l8.815 8.83a1.745 1.745 0 0 0-.064.476c0 .94.761 1.702 1.702 1.702a1.69 1.69 0 0 0 1.686-1.702 1.69 1.69 0 0 0-1.685-1.703h-.001c-.187.001-.372.032-.548.09L1.687.59c2.868.98 10.483 3.523 14.671 4.36ZM13.84 19.97l6.131-6.13 3.637 2.423-7.343 7.344-2.425-3.637Z" fill="#fff" stroke="#000" stroke-width="1.1"/>
        <path d="M24.25 21v3.25V21Zm0 3.25v3.25-3.25Zm0 0h3.25-3.25Zm0 0H21Z" fill="#fff"/>
        <path d="M24.95 23.5c0 .028.022.05.05.05h2.5a.7.7 0 1 1 0 1.4H25a.05.05 0 0 0-.05.05v2.5a.7.7 0 1 1-1.4 0V25a.05.05 0 0 0-.05-.05H21a.7.7 0 1 1 0-1.4h2.5a.05.05 0 0 0 .05-.05V21a.7.7 0 1 1 1.4 0v2.5Z" fill="#000" stroke="#fff" stroke-width=".1" stroke-linecap="round" stroke-linejoin="round"/>
    </g>
    <defs>
        <clipPath id="a">
            <path fill="#fff" d="M0 0h32v32H0z"/>
        </clipPath>
    </defs>
</svg>